%TF.GenerationSoftware,KiCad,Pcbnew,(6.0.5-0)*%
%TF.CreationDate,2022-07-21T21:16:07-07:00*%
%TF.ProjectId,Gitclock,47697463-6c6f-4636-9b2e-6b696361645f,rev?*%
%TF.SameCoordinates,PX4c4db10PY8b48bd0*%
%TF.FileFunction,Legend,Top*%
%TF.FilePolarity,Positive*%
%FSLAX46Y46*%
G04 Gerber Fmt 4.6, Leading zero omitted, Abs format (unit mm)*
G04 Created by KiCad (PCBNEW (6.0.5-0)) date 2022-07-21 21:16:07*
%MOMM*%
%LPD*%
G01*
G04 APERTURE LIST*
G04 Aperture macros list*
%AMRoundRect*
0 Rectangle with rounded corners*
0 $1 Rounding radius*
0 $2 $3 $4 $5 $6 $7 $8 $9 X,Y pos of 4 corners*
0 Add a 4 corners polygon primitive as box body*
4,1,4,$2,$3,$4,$5,$6,$7,$8,$9,$2,$3,0*
0 Add four circle primitives for the rounded corners*
1,1,$1+$1,$2,$3*
1,1,$1+$1,$4,$5*
1,1,$1+$1,$6,$7*
1,1,$1+$1,$8,$9*
0 Add four rect primitives between the rounded corners*
20,1,$1+$1,$2,$3,$4,$5,0*
20,1,$1+$1,$4,$5,$6,$7,0*
20,1,$1+$1,$6,$7,$8,$9,0*
20,1,$1+$1,$8,$9,$2,$3,0*%
G04 Aperture macros list end*
%ADD10C,0.150000*%
%ADD11C,0.120000*%
%ADD12C,0.250000*%
%ADD13R,1.150000X1.400000*%
%ADD14R,1.400000X1.150000*%
%ADD15R,0.900000X0.800000*%
%ADD16R,1.600000X1.600000*%
%ADD17O,1.600000X1.600000*%
%ADD18C,3.200000*%
%ADD19R,2.200000X1.200000*%
%ADD20R,6.400000X5.800000*%
%ADD21C,3.000000*%
%ADD22O,1.800000X2.600000*%
%ADD23R,1.800000X2.600000*%
%ADD24R,2.000000X4.500000*%
%ADD25R,1.700000X1.700000*%
%ADD26O,1.700000X1.700000*%
%ADD27C,2.000000*%
%ADD28C,1.440000*%
%ADD29R,2.000000X2.000000*%
%ADD30R,1.600000X1.400000*%
%ADD31R,1.800000X1.000000*%
%ADD32R,1.400000X1.400000*%
%ADD33C,1.400000*%
%ADD34RoundRect,0.243750X0.243750X0.456250X-0.243750X0.456250X-0.243750X-0.456250X0.243750X-0.456250X0*%
%ADD35RoundRect,0.400000X0.400000X-0.900000X0.400000X0.900000X-0.400000X0.900000X-0.400000X-0.900000X0*%
%ADD36RoundRect,0.400000X0.900000X-0.400000X0.900000X0.400000X-0.900000X0.400000X-0.900000X-0.400000X0*%
%ADD37R,3.000000X3.000000*%
G04 APERTURE END LIST*
D10*
%TO.C,R12*%
X95877142Y53777620D02*
X95543809Y54253810D01*
X95305714Y53777620D02*
X95305714Y54777620D01*
X95686666Y54777620D01*
X95781904Y54730000D01*
X95829523Y54682381D01*
X95877142Y54587143D01*
X95877142Y54444286D01*
X95829523Y54349048D01*
X95781904Y54301429D01*
X95686666Y54253810D01*
X95305714Y54253810D01*
X96829523Y53777620D02*
X96258095Y53777620D01*
X96543809Y53777620D02*
X96543809Y54777620D01*
X96448571Y54634762D01*
X96353333Y54539524D01*
X96258095Y54491905D01*
X97210476Y54682381D02*
X97258095Y54730000D01*
X97353333Y54777620D01*
X97591428Y54777620D01*
X97686666Y54730000D01*
X97734285Y54682381D01*
X97781904Y54587143D01*
X97781904Y54491905D01*
X97734285Y54349048D01*
X97162857Y53777620D01*
X97781904Y53777620D01*
%TO.C,R11*%
X14802380Y39997143D02*
X14326190Y39663810D01*
X14802380Y39425715D02*
X13802380Y39425715D01*
X13802380Y39806667D01*
X13850000Y39901905D01*
X13897619Y39949524D01*
X13992857Y39997143D01*
X14135714Y39997143D01*
X14230952Y39949524D01*
X14278571Y39901905D01*
X14326190Y39806667D01*
X14326190Y39425715D01*
X14802380Y40949524D02*
X14802380Y40378096D01*
X14802380Y40663810D02*
X13802380Y40663810D01*
X13945238Y40568572D01*
X14040476Y40473334D01*
X14088095Y40378096D01*
X14802380Y41901905D02*
X14802380Y41330477D01*
X14802380Y41616191D02*
X13802380Y41616191D01*
X13945238Y41520953D01*
X14040476Y41425715D01*
X14088095Y41330477D01*
%TO.C,R5*%
X121992380Y55713334D02*
X121516190Y55380000D01*
X121992380Y55141905D02*
X120992380Y55141905D01*
X120992380Y55522858D01*
X121040000Y55618096D01*
X121087619Y55665715D01*
X121182857Y55713334D01*
X121325714Y55713334D01*
X121420952Y55665715D01*
X121468571Y55618096D01*
X121516190Y55522858D01*
X121516190Y55141905D01*
X120992380Y56618096D02*
X120992380Y56141905D01*
X121468571Y56094286D01*
X121420952Y56141905D01*
X121373333Y56237143D01*
X121373333Y56475239D01*
X121420952Y56570477D01*
X121468571Y56618096D01*
X121563809Y56665715D01*
X121801904Y56665715D01*
X121897142Y56618096D01*
X121944761Y56570477D01*
X121992380Y56475239D01*
X121992380Y56237143D01*
X121944761Y56141905D01*
X121897142Y56094286D01*
%TO.C,Q1*%
X102774761Y61642381D02*
X102679523Y61690000D01*
X102584285Y61785239D01*
X102441428Y61928096D01*
X102346190Y61975715D01*
X102250952Y61975715D01*
X102298571Y61737620D02*
X102203333Y61785239D01*
X102108095Y61880477D01*
X102060476Y62070953D01*
X102060476Y62404286D01*
X102108095Y62594762D01*
X102203333Y62690000D01*
X102298571Y62737620D01*
X102489047Y62737620D01*
X102584285Y62690000D01*
X102679523Y62594762D01*
X102727142Y62404286D01*
X102727142Y62070953D01*
X102679523Y61880477D01*
X102584285Y61785239D01*
X102489047Y61737620D01*
X102298571Y61737620D01*
X103679523Y61737620D02*
X103108095Y61737620D01*
X103393809Y61737620D02*
X103393809Y62737620D01*
X103298571Y62594762D01*
X103203333Y62499524D01*
X103108095Y62451905D01*
%TO.C,C9*%
X68413333Y60982858D02*
X68365714Y60935239D01*
X68222857Y60887620D01*
X68127619Y60887620D01*
X67984761Y60935239D01*
X67889523Y61030477D01*
X67841904Y61125715D01*
X67794285Y61316191D01*
X67794285Y61459048D01*
X67841904Y61649524D01*
X67889523Y61744762D01*
X67984761Y61840000D01*
X68127619Y61887620D01*
X68222857Y61887620D01*
X68365714Y61840000D01*
X68413333Y61792381D01*
X68889523Y60887620D02*
X69080000Y60887620D01*
X69175238Y60935239D01*
X69222857Y60982858D01*
X69318095Y61125715D01*
X69365714Y61316191D01*
X69365714Y61697143D01*
X69318095Y61792381D01*
X69270476Y61840000D01*
X69175238Y61887620D01*
X68984761Y61887620D01*
X68889523Y61840000D01*
X68841904Y61792381D01*
X68794285Y61697143D01*
X68794285Y61459048D01*
X68841904Y61363810D01*
X68889523Y61316191D01*
X68984761Y61268572D01*
X69175238Y61268572D01*
X69270476Y61316191D01*
X69318095Y61363810D01*
X69365714Y61459048D01*
%TO.C,U1*%
X18288095Y82877620D02*
X18288095Y82068096D01*
X18335714Y81972858D01*
X18383333Y81925239D01*
X18478571Y81877620D01*
X18669047Y81877620D01*
X18764285Y81925239D01*
X18811904Y81972858D01*
X18859523Y82068096D01*
X18859523Y82877620D01*
X19859523Y81877620D02*
X19288095Y81877620D01*
X19573809Y81877620D02*
X19573809Y82877620D01*
X19478571Y82734762D01*
X19383333Y82639524D01*
X19288095Y82591905D01*
%TO.C,U3*%
X51727380Y52588096D02*
X52536904Y52588096D01*
X52632142Y52635715D01*
X52679761Y52683334D01*
X52727380Y52778572D01*
X52727380Y52969048D01*
X52679761Y53064286D01*
X52632142Y53111905D01*
X52536904Y53159524D01*
X51727380Y53159524D01*
X51727380Y53540477D02*
X51727380Y54159524D01*
X52108333Y53826191D01*
X52108333Y53969048D01*
X52155952Y54064286D01*
X52203571Y54111905D01*
X52298809Y54159524D01*
X52536904Y54159524D01*
X52632142Y54111905D01*
X52679761Y54064286D01*
X52727380Y53969048D01*
X52727380Y53683334D01*
X52679761Y53588096D01*
X52632142Y53540477D01*
%TO.C,H4*%
X134228095Y9797620D02*
X134228095Y10797620D01*
X134228095Y10321429D02*
X134799523Y10321429D01*
X134799523Y9797620D02*
X134799523Y10797620D01*
X135704285Y10464286D02*
X135704285Y9797620D01*
X135466190Y10845239D02*
X135228095Y10130953D01*
X135847142Y10130953D01*
%TO.C,U2*%
X111423095Y68692620D02*
X111423095Y67883096D01*
X111470714Y67787858D01*
X111518333Y67740239D01*
X111613571Y67692620D01*
X111804047Y67692620D01*
X111899285Y67740239D01*
X111946904Y67787858D01*
X111994523Y67883096D01*
X111994523Y68692620D01*
X112423095Y68597381D02*
X112470714Y68645000D01*
X112565952Y68692620D01*
X112804047Y68692620D01*
X112899285Y68645000D01*
X112946904Y68597381D01*
X112994523Y68502143D01*
X112994523Y68406905D01*
X112946904Y68264048D01*
X112375476Y67692620D01*
X112994523Y67692620D01*
%TO.C,U4*%
X36078095Y89227620D02*
X36078095Y88418096D01*
X36125714Y88322858D01*
X36173333Y88275239D01*
X36268571Y88227620D01*
X36459047Y88227620D01*
X36554285Y88275239D01*
X36601904Y88322858D01*
X36649523Y88418096D01*
X36649523Y89227620D01*
X37554285Y88894286D02*
X37554285Y88227620D01*
X37316190Y89275239D02*
X37078095Y88560953D01*
X37697142Y88560953D01*
%TO.C,DS2*%
X29545714Y44115120D02*
X29545714Y45115120D01*
X29783809Y45115120D01*
X29926666Y45067500D01*
X30021904Y44972262D01*
X30069523Y44877024D01*
X30117142Y44686548D01*
X30117142Y44543691D01*
X30069523Y44353215D01*
X30021904Y44257977D01*
X29926666Y44162739D01*
X29783809Y44115120D01*
X29545714Y44115120D01*
X30498095Y44162739D02*
X30640952Y44115120D01*
X30879047Y44115120D01*
X30974285Y44162739D01*
X31021904Y44210358D01*
X31069523Y44305596D01*
X31069523Y44400834D01*
X31021904Y44496072D01*
X30974285Y44543691D01*
X30879047Y44591310D01*
X30688571Y44638929D01*
X30593333Y44686548D01*
X30545714Y44734167D01*
X30498095Y44829405D01*
X30498095Y44924643D01*
X30545714Y45019881D01*
X30593333Y45067500D01*
X30688571Y45115120D01*
X30926666Y45115120D01*
X31069523Y45067500D01*
X31450476Y45019881D02*
X31498095Y45067500D01*
X31593333Y45115120D01*
X31831428Y45115120D01*
X31926666Y45067500D01*
X31974285Y45019881D01*
X32021904Y44924643D01*
X32021904Y44829405D01*
X31974285Y44686548D01*
X31402857Y44115120D01*
X32021904Y44115120D01*
%TO.C,R2*%
X4913333Y79937620D02*
X4580000Y80413810D01*
X4341904Y79937620D02*
X4341904Y80937620D01*
X4722857Y80937620D01*
X4818095Y80890000D01*
X4865714Y80842381D01*
X4913333Y80747143D01*
X4913333Y80604286D01*
X4865714Y80509048D01*
X4818095Y80461429D01*
X4722857Y80413810D01*
X4341904Y80413810D01*
X5294285Y80842381D02*
X5341904Y80890000D01*
X5437142Y80937620D01*
X5675238Y80937620D01*
X5770476Y80890000D01*
X5818095Y80842381D01*
X5865714Y80747143D01*
X5865714Y80651905D01*
X5818095Y80509048D01*
X5246666Y79937620D01*
X5865714Y79937620D01*
%TO.C,R9*%
X28772380Y81113334D02*
X28296190Y80780000D01*
X28772380Y80541905D02*
X27772380Y80541905D01*
X27772380Y80922858D01*
X27820000Y81018096D01*
X27867619Y81065715D01*
X27962857Y81113334D01*
X28105714Y81113334D01*
X28200952Y81065715D01*
X28248571Y81018096D01*
X28296190Y80922858D01*
X28296190Y80541905D01*
X28772380Y81589524D02*
X28772380Y81780000D01*
X28724761Y81875239D01*
X28677142Y81922858D01*
X28534285Y82018096D01*
X28343809Y82065715D01*
X27962857Y82065715D01*
X27867619Y82018096D01*
X27820000Y81970477D01*
X27772380Y81875239D01*
X27772380Y81684762D01*
X27820000Y81589524D01*
X27867619Y81541905D01*
X27962857Y81494286D01*
X28200952Y81494286D01*
X28296190Y81541905D01*
X28343809Y81589524D01*
X28391428Y81684762D01*
X28391428Y81875239D01*
X28343809Y81970477D01*
X28296190Y82018096D01*
X28200952Y82065715D01*
%TO.C,C8*%
X64603333Y57682858D02*
X64555714Y57635239D01*
X64412857Y57587620D01*
X64317619Y57587620D01*
X64174761Y57635239D01*
X64079523Y57730477D01*
X64031904Y57825715D01*
X63984285Y58016191D01*
X63984285Y58159048D01*
X64031904Y58349524D01*
X64079523Y58444762D01*
X64174761Y58540000D01*
X64317619Y58587620D01*
X64412857Y58587620D01*
X64555714Y58540000D01*
X64603333Y58492381D01*
X65174761Y58159048D02*
X65079523Y58206667D01*
X65031904Y58254286D01*
X64984285Y58349524D01*
X64984285Y58397143D01*
X65031904Y58492381D01*
X65079523Y58540000D01*
X65174761Y58587620D01*
X65365238Y58587620D01*
X65460476Y58540000D01*
X65508095Y58492381D01*
X65555714Y58397143D01*
X65555714Y58349524D01*
X65508095Y58254286D01*
X65460476Y58206667D01*
X65365238Y58159048D01*
X65174761Y58159048D01*
X65079523Y58111429D01*
X65031904Y58063810D01*
X64984285Y57968572D01*
X64984285Y57778096D01*
X65031904Y57682858D01*
X65079523Y57635239D01*
X65174761Y57587620D01*
X65365238Y57587620D01*
X65460476Y57635239D01*
X65508095Y57682858D01*
X65555714Y57778096D01*
X65555714Y57968572D01*
X65508095Y58063810D01*
X65460476Y58111429D01*
X65365238Y58159048D01*
%TO.C,R6*%
X5152380Y27773334D02*
X4676190Y27440000D01*
X5152380Y27201905D02*
X4152380Y27201905D01*
X4152380Y27582858D01*
X4200000Y27678096D01*
X4247619Y27725715D01*
X4342857Y27773334D01*
X4485714Y27773334D01*
X4580952Y27725715D01*
X4628571Y27678096D01*
X4676190Y27582858D01*
X4676190Y27201905D01*
X4152380Y28630477D02*
X4152380Y28440000D01*
X4200000Y28344762D01*
X4247619Y28297143D01*
X4390476Y28201905D01*
X4580952Y28154286D01*
X4961904Y28154286D01*
X5057142Y28201905D01*
X5104761Y28249524D01*
X5152380Y28344762D01*
X5152380Y28535239D01*
X5104761Y28630477D01*
X5057142Y28678096D01*
X4961904Y28725715D01*
X4723809Y28725715D01*
X4628571Y28678096D01*
X4580952Y28630477D01*
X4533333Y28535239D01*
X4533333Y28344762D01*
X4580952Y28249524D01*
X4628571Y28201905D01*
X4723809Y28154286D01*
%TO.C,Y1*%
X6586190Y59213810D02*
X7062380Y59213810D01*
X6062380Y58880477D02*
X6586190Y59213810D01*
X6062380Y59547143D01*
X7062380Y60404286D02*
X7062380Y59832858D01*
X7062380Y60118572D02*
X6062380Y60118572D01*
X6205238Y60023334D01*
X6300476Y59928096D01*
X6348095Y59832858D01*
%TO.C,C5*%
X12167142Y48093334D02*
X12214761Y48045715D01*
X12262380Y47902858D01*
X12262380Y47807620D01*
X12214761Y47664762D01*
X12119523Y47569524D01*
X12024285Y47521905D01*
X11833809Y47474286D01*
X11690952Y47474286D01*
X11500476Y47521905D01*
X11405238Y47569524D01*
X11310000Y47664762D01*
X11262380Y47807620D01*
X11262380Y47902858D01*
X11310000Y48045715D01*
X11357619Y48093334D01*
X11262380Y48998096D02*
X11262380Y48521905D01*
X11738571Y48474286D01*
X11690952Y48521905D01*
X11643333Y48617143D01*
X11643333Y48855239D01*
X11690952Y48950477D01*
X11738571Y48998096D01*
X11833809Y49045715D01*
X12071904Y49045715D01*
X12167142Y48998096D01*
X12214761Y48950477D01*
X12262380Y48855239D01*
X12262380Y48617143D01*
X12214761Y48521905D01*
X12167142Y48474286D01*
%TO.C,C6*%
X112863333Y64032858D02*
X112815714Y63985239D01*
X112672857Y63937620D01*
X112577619Y63937620D01*
X112434761Y63985239D01*
X112339523Y64080477D01*
X112291904Y64175715D01*
X112244285Y64366191D01*
X112244285Y64509048D01*
X112291904Y64699524D01*
X112339523Y64794762D01*
X112434761Y64890000D01*
X112577619Y64937620D01*
X112672857Y64937620D01*
X112815714Y64890000D01*
X112863333Y64842381D01*
X113720476Y64937620D02*
X113530000Y64937620D01*
X113434761Y64890000D01*
X113387142Y64842381D01*
X113291904Y64699524D01*
X113244285Y64509048D01*
X113244285Y64128096D01*
X113291904Y64032858D01*
X113339523Y63985239D01*
X113434761Y63937620D01*
X113625238Y63937620D01*
X113720476Y63985239D01*
X113768095Y64032858D01*
X113815714Y64128096D01*
X113815714Y64366191D01*
X113768095Y64461429D01*
X113720476Y64509048D01*
X113625238Y64556667D01*
X113434761Y64556667D01*
X113339523Y64509048D01*
X113291904Y64461429D01*
X113244285Y64366191D01*
%TO.C,J3*%
X20832380Y13636667D02*
X21546666Y13636667D01*
X21689523Y13589048D01*
X21784761Y13493810D01*
X21832380Y13350953D01*
X21832380Y13255715D01*
X20832380Y14017620D02*
X20832380Y14636667D01*
X21213333Y14303334D01*
X21213333Y14446191D01*
X21260952Y14541429D01*
X21308571Y14589048D01*
X21403809Y14636667D01*
X21641904Y14636667D01*
X21737142Y14589048D01*
X21784761Y14541429D01*
X21832380Y14446191D01*
X21832380Y14160477D01*
X21784761Y14065239D01*
X21737142Y14017620D01*
%TO.C,TP4*%
X85098095Y58425620D02*
X85669523Y58425620D01*
X85383809Y57425620D02*
X85383809Y58425620D01*
X86002857Y57425620D02*
X86002857Y58425620D01*
X86383809Y58425620D01*
X86479047Y58378000D01*
X86526666Y58330381D01*
X86574285Y58235143D01*
X86574285Y58092286D01*
X86526666Y57997048D01*
X86479047Y57949429D01*
X86383809Y57901810D01*
X86002857Y57901810D01*
X87431428Y58092286D02*
X87431428Y57425620D01*
X87193333Y58473239D02*
X86955238Y57758953D01*
X87574285Y57758953D01*
%TO.C,R4*%
X11263333Y82477620D02*
X10930000Y82953810D01*
X10691904Y82477620D02*
X10691904Y83477620D01*
X11072857Y83477620D01*
X11168095Y83430000D01*
X11215714Y83382381D01*
X11263333Y83287143D01*
X11263333Y83144286D01*
X11215714Y83049048D01*
X11168095Y83001429D01*
X11072857Y82953810D01*
X10691904Y82953810D01*
X12120476Y83144286D02*
X12120476Y82477620D01*
X11882380Y83525239D02*
X11644285Y82810953D01*
X12263333Y82810953D01*
%TO.C,H2*%
X134228095Y89797620D02*
X134228095Y90797620D01*
X134228095Y90321429D02*
X134799523Y90321429D01*
X134799523Y89797620D02*
X134799523Y90797620D01*
X135228095Y90702381D02*
X135275714Y90750000D01*
X135370952Y90797620D01*
X135609047Y90797620D01*
X135704285Y90750000D01*
X135751904Y90702381D01*
X135799523Y90607143D01*
X135799523Y90511905D01*
X135751904Y90369048D01*
X135180476Y89797620D01*
X135799523Y89797620D01*
%TO.C,RV2*%
X40044761Y58902620D02*
X39711428Y59378810D01*
X39473333Y58902620D02*
X39473333Y59902620D01*
X39854285Y59902620D01*
X39949523Y59855000D01*
X39997142Y59807381D01*
X40044761Y59712143D01*
X40044761Y59569286D01*
X39997142Y59474048D01*
X39949523Y59426429D01*
X39854285Y59378810D01*
X39473333Y59378810D01*
X40330476Y59902620D02*
X40663809Y58902620D01*
X40997142Y59902620D01*
X41282857Y59807381D02*
X41330476Y59855000D01*
X41425714Y59902620D01*
X41663809Y59902620D01*
X41759047Y59855000D01*
X41806666Y59807381D01*
X41854285Y59712143D01*
X41854285Y59616905D01*
X41806666Y59474048D01*
X41235238Y58902620D01*
X41854285Y58902620D01*
%TO.C,SW5*%
X10726666Y36005239D02*
X10869523Y35957620D01*
X11107619Y35957620D01*
X11202857Y36005239D01*
X11250476Y36052858D01*
X11298095Y36148096D01*
X11298095Y36243334D01*
X11250476Y36338572D01*
X11202857Y36386191D01*
X11107619Y36433810D01*
X10917142Y36481429D01*
X10821904Y36529048D01*
X10774285Y36576667D01*
X10726666Y36671905D01*
X10726666Y36767143D01*
X10774285Y36862381D01*
X10821904Y36910000D01*
X10917142Y36957620D01*
X11155238Y36957620D01*
X11298095Y36910000D01*
X11631428Y36957620D02*
X11869523Y35957620D01*
X12060000Y36671905D01*
X12250476Y35957620D01*
X12488571Y36957620D01*
X13345714Y36957620D02*
X12869523Y36957620D01*
X12821904Y36481429D01*
X12869523Y36529048D01*
X12964761Y36576667D01*
X13202857Y36576667D01*
X13298095Y36529048D01*
X13345714Y36481429D01*
X13393333Y36386191D01*
X13393333Y36148096D01*
X13345714Y36052858D01*
X13298095Y36005239D01*
X13202857Y35957620D01*
X12964761Y35957620D01*
X12869523Y36005239D01*
X12821904Y36052858D01*
%TO.C,R7*%
X8452380Y31583334D02*
X7976190Y31250000D01*
X8452380Y31011905D02*
X7452380Y31011905D01*
X7452380Y31392858D01*
X7500000Y31488096D01*
X7547619Y31535715D01*
X7642857Y31583334D01*
X7785714Y31583334D01*
X7880952Y31535715D01*
X7928571Y31488096D01*
X7976190Y31392858D01*
X7976190Y31011905D01*
X7452380Y31916667D02*
X7452380Y32583334D01*
X8452380Y32154762D01*
%TO.C,H3*%
X4228095Y9797620D02*
X4228095Y10797620D01*
X4228095Y10321429D02*
X4799523Y10321429D01*
X4799523Y9797620D02*
X4799523Y10797620D01*
X5180476Y10797620D02*
X5799523Y10797620D01*
X5466190Y10416667D01*
X5609047Y10416667D01*
X5704285Y10369048D01*
X5751904Y10321429D01*
X5799523Y10226191D01*
X5799523Y9988096D01*
X5751904Y9892858D01*
X5704285Y9845239D01*
X5609047Y9797620D01*
X5323333Y9797620D01*
X5228095Y9845239D01*
X5180476Y9892858D01*
%TO.C,SW1*%
X100266666Y86445239D02*
X100409523Y86397620D01*
X100647619Y86397620D01*
X100742857Y86445239D01*
X100790476Y86492858D01*
X100838095Y86588096D01*
X100838095Y86683334D01*
X100790476Y86778572D01*
X100742857Y86826191D01*
X100647619Y86873810D01*
X100457142Y86921429D01*
X100361904Y86969048D01*
X100314285Y87016667D01*
X100266666Y87111905D01*
X100266666Y87207143D01*
X100314285Y87302381D01*
X100361904Y87350000D01*
X100457142Y87397620D01*
X100695238Y87397620D01*
X100838095Y87350000D01*
X101171428Y87397620D02*
X101409523Y86397620D01*
X101600000Y87111905D01*
X101790476Y86397620D01*
X102028571Y87397620D01*
X102933333Y86397620D02*
X102361904Y86397620D01*
X102647619Y86397620D02*
X102647619Y87397620D01*
X102552380Y87254762D01*
X102457142Y87159524D01*
X102361904Y87111905D01*
%TO.C,R3*%
X18883333Y83747620D02*
X18550000Y84223810D01*
X18311904Y83747620D02*
X18311904Y84747620D01*
X18692857Y84747620D01*
X18788095Y84700000D01*
X18835714Y84652381D01*
X18883333Y84557143D01*
X18883333Y84414286D01*
X18835714Y84319048D01*
X18788095Y84271429D01*
X18692857Y84223810D01*
X18311904Y84223810D01*
X19216666Y84747620D02*
X19835714Y84747620D01*
X19502380Y84366667D01*
X19645238Y84366667D01*
X19740476Y84319048D01*
X19788095Y84271429D01*
X19835714Y84176191D01*
X19835714Y83938096D01*
X19788095Y83842858D01*
X19740476Y83795239D01*
X19645238Y83747620D01*
X19359523Y83747620D01*
X19264285Y83795239D01*
X19216666Y83842858D01*
%TO.C,H1*%
X4228095Y89797620D02*
X4228095Y90797620D01*
X4228095Y90321429D02*
X4799523Y90321429D01*
X4799523Y89797620D02*
X4799523Y90797620D01*
X5799523Y89797620D02*
X5228095Y89797620D01*
X5513809Y89797620D02*
X5513809Y90797620D01*
X5418571Y90654762D01*
X5323333Y90559524D01*
X5228095Y90511905D01*
%TO.C,TP2*%
X53343095Y63505620D02*
X53914523Y63505620D01*
X53628809Y62505620D02*
X53628809Y63505620D01*
X54247857Y62505620D02*
X54247857Y63505620D01*
X54628809Y63505620D01*
X54724047Y63458000D01*
X54771666Y63410381D01*
X54819285Y63315143D01*
X54819285Y63172286D01*
X54771666Y63077048D01*
X54724047Y63029429D01*
X54628809Y62981810D01*
X54247857Y62981810D01*
X55200238Y63410381D02*
X55247857Y63458000D01*
X55343095Y63505620D01*
X55581190Y63505620D01*
X55676428Y63458000D01*
X55724047Y63410381D01*
X55771666Y63315143D01*
X55771666Y63219905D01*
X55724047Y63077048D01*
X55152619Y62505620D01*
X55771666Y62505620D01*
%TO.C,TP1*%
X101608095Y49535620D02*
X102179523Y49535620D01*
X101893809Y48535620D02*
X101893809Y49535620D01*
X102512857Y48535620D02*
X102512857Y49535620D01*
X102893809Y49535620D01*
X102989047Y49488000D01*
X103036666Y49440381D01*
X103084285Y49345143D01*
X103084285Y49202286D01*
X103036666Y49107048D01*
X102989047Y49059429D01*
X102893809Y49011810D01*
X102512857Y49011810D01*
X104036666Y48535620D02*
X103465238Y48535620D01*
X103750952Y48535620D02*
X103750952Y49535620D01*
X103655714Y49392762D01*
X103560476Y49297524D01*
X103465238Y49249905D01*
%TO.C,R10*%
X25472380Y37457143D02*
X24996190Y37123810D01*
X25472380Y36885715D02*
X24472380Y36885715D01*
X24472380Y37266667D01*
X24520000Y37361905D01*
X24567619Y37409524D01*
X24662857Y37457143D01*
X24805714Y37457143D01*
X24900952Y37409524D01*
X24948571Y37361905D01*
X24996190Y37266667D01*
X24996190Y36885715D01*
X25472380Y38409524D02*
X25472380Y37838096D01*
X25472380Y38123810D02*
X24472380Y38123810D01*
X24615238Y38028572D01*
X24710476Y37933334D01*
X24758095Y37838096D01*
X24472380Y39028572D02*
X24472380Y39123810D01*
X24520000Y39219048D01*
X24567619Y39266667D01*
X24662857Y39314286D01*
X24853333Y39361905D01*
X25091428Y39361905D01*
X25281904Y39314286D01*
X25377142Y39266667D01*
X25424761Y39219048D01*
X25472380Y39123810D01*
X25472380Y39028572D01*
X25424761Y38933334D01*
X25377142Y38885715D01*
X25281904Y38838096D01*
X25091428Y38790477D01*
X24853333Y38790477D01*
X24662857Y38838096D01*
X24567619Y38885715D01*
X24520000Y38933334D01*
X24472380Y39028572D01*
%TO.C,C3*%
X4913333Y74192858D02*
X4865714Y74145239D01*
X4722857Y74097620D01*
X4627619Y74097620D01*
X4484761Y74145239D01*
X4389523Y74240477D01*
X4341904Y74335715D01*
X4294285Y74526191D01*
X4294285Y74669048D01*
X4341904Y74859524D01*
X4389523Y74954762D01*
X4484761Y75050000D01*
X4627619Y75097620D01*
X4722857Y75097620D01*
X4865714Y75050000D01*
X4913333Y75002381D01*
X5246666Y75097620D02*
X5865714Y75097620D01*
X5532380Y74716667D01*
X5675238Y74716667D01*
X5770476Y74669048D01*
X5818095Y74621429D01*
X5865714Y74526191D01*
X5865714Y74288096D01*
X5818095Y74192858D01*
X5770476Y74145239D01*
X5675238Y74097620D01*
X5389523Y74097620D01*
X5294285Y74145239D01*
X5246666Y74192858D01*
%TO.C,TP5*%
X116848095Y81285620D02*
X117419523Y81285620D01*
X117133809Y80285620D02*
X117133809Y81285620D01*
X117752857Y80285620D02*
X117752857Y81285620D01*
X118133809Y81285620D01*
X118229047Y81238000D01*
X118276666Y81190381D01*
X118324285Y81095143D01*
X118324285Y80952286D01*
X118276666Y80857048D01*
X118229047Y80809429D01*
X118133809Y80761810D01*
X117752857Y80761810D01*
X119229047Y81285620D02*
X118752857Y81285620D01*
X118705238Y80809429D01*
X118752857Y80857048D01*
X118848095Y80904667D01*
X119086190Y80904667D01*
X119181428Y80857048D01*
X119229047Y80809429D01*
X119276666Y80714191D01*
X119276666Y80476096D01*
X119229047Y80380858D01*
X119181428Y80333239D01*
X119086190Y80285620D01*
X118848095Y80285620D01*
X118752857Y80333239D01*
X118705238Y80380858D01*
%TO.C,Y2*%
X31136190Y84613810D02*
X31612380Y84613810D01*
X30612380Y84280477D02*
X31136190Y84613810D01*
X30612380Y84947143D01*
X30707619Y85232858D02*
X30660000Y85280477D01*
X30612380Y85375715D01*
X30612380Y85613810D01*
X30660000Y85709048D01*
X30707619Y85756667D01*
X30802857Y85804286D01*
X30898095Y85804286D01*
X31040952Y85756667D01*
X31612380Y85185239D01*
X31612380Y85804286D01*
%TO.C,C1*%
X27773333Y63522858D02*
X27725714Y63475239D01*
X27582857Y63427620D01*
X27487619Y63427620D01*
X27344761Y63475239D01*
X27249523Y63570477D01*
X27201904Y63665715D01*
X27154285Y63856191D01*
X27154285Y63999048D01*
X27201904Y64189524D01*
X27249523Y64284762D01*
X27344761Y64380000D01*
X27487619Y64427620D01*
X27582857Y64427620D01*
X27725714Y64380000D01*
X27773333Y64332381D01*
X28725714Y63427620D02*
X28154285Y63427620D01*
X28440000Y63427620D02*
X28440000Y64427620D01*
X28344761Y64284762D01*
X28249523Y64189524D01*
X28154285Y64141905D01*
%TO.C,TP3*%
X121928095Y21595620D02*
X122499523Y21595620D01*
X122213809Y20595620D02*
X122213809Y21595620D01*
X122832857Y20595620D02*
X122832857Y21595620D01*
X123213809Y21595620D01*
X123309047Y21548000D01*
X123356666Y21500381D01*
X123404285Y21405143D01*
X123404285Y21262286D01*
X123356666Y21167048D01*
X123309047Y21119429D01*
X123213809Y21071810D01*
X122832857Y21071810D01*
X123737619Y21595620D02*
X124356666Y21595620D01*
X124023333Y21214667D01*
X124166190Y21214667D01*
X124261428Y21167048D01*
X124309047Y21119429D01*
X124356666Y21024191D01*
X124356666Y20786096D01*
X124309047Y20690858D01*
X124261428Y20643239D01*
X124166190Y20595620D01*
X123880476Y20595620D01*
X123785238Y20643239D01*
X123737619Y20690858D01*
%TO.C,DS1*%
X43007380Y63100596D02*
X42007380Y63100596D01*
X42007380Y63338691D01*
X42055000Y63481548D01*
X42150238Y63576786D01*
X42245476Y63624405D01*
X42435952Y63672024D01*
X42578809Y63672024D01*
X42769285Y63624405D01*
X42864523Y63576786D01*
X42959761Y63481548D01*
X43007380Y63338691D01*
X43007380Y63100596D01*
X42959761Y64052977D02*
X43007380Y64195834D01*
X43007380Y64433929D01*
X42959761Y64529167D01*
X42912142Y64576786D01*
X42816904Y64624405D01*
X42721666Y64624405D01*
X42626428Y64576786D01*
X42578809Y64529167D01*
X42531190Y64433929D01*
X42483571Y64243453D01*
X42435952Y64148215D01*
X42388333Y64100596D01*
X42293095Y64052977D01*
X42197857Y64052977D01*
X42102619Y64100596D01*
X42055000Y64148215D01*
X42007380Y64243453D01*
X42007380Y64481548D01*
X42055000Y64624405D01*
X43007380Y65576786D02*
X43007380Y65005358D01*
X43007380Y65291072D02*
X42007380Y65291072D01*
X42150238Y65195834D01*
X42245476Y65100596D01*
X42293095Y65005358D01*
%TO.C,R8*%
X25472380Y76033334D02*
X24996190Y75700000D01*
X25472380Y75461905D02*
X24472380Y75461905D01*
X24472380Y75842858D01*
X24520000Y75938096D01*
X24567619Y75985715D01*
X24662857Y76033334D01*
X24805714Y76033334D01*
X24900952Y75985715D01*
X24948571Y75938096D01*
X24996190Y75842858D01*
X24996190Y75461905D01*
X24900952Y76604762D02*
X24853333Y76509524D01*
X24805714Y76461905D01*
X24710476Y76414286D01*
X24662857Y76414286D01*
X24567619Y76461905D01*
X24520000Y76509524D01*
X24472380Y76604762D01*
X24472380Y76795239D01*
X24520000Y76890477D01*
X24567619Y76938096D01*
X24662857Y76985715D01*
X24710476Y76985715D01*
X24805714Y76938096D01*
X24853333Y76890477D01*
X24900952Y76795239D01*
X24900952Y76604762D01*
X24948571Y76509524D01*
X24996190Y76461905D01*
X25091428Y76414286D01*
X25281904Y76414286D01*
X25377142Y76461905D01*
X25424761Y76509524D01*
X25472380Y76604762D01*
X25472380Y76795239D01*
X25424761Y76890477D01*
X25377142Y76938096D01*
X25281904Y76985715D01*
X25091428Y76985715D01*
X24996190Y76938096D01*
X24948571Y76890477D01*
X24900952Y76795239D01*
%TO.C,R13*%
X70477142Y44887620D02*
X70143809Y45363810D01*
X69905714Y44887620D02*
X69905714Y45887620D01*
X70286666Y45887620D01*
X70381904Y45840000D01*
X70429523Y45792381D01*
X70477142Y45697143D01*
X70477142Y45554286D01*
X70429523Y45459048D01*
X70381904Y45411429D01*
X70286666Y45363810D01*
X69905714Y45363810D01*
X71429523Y44887620D02*
X70858095Y44887620D01*
X71143809Y44887620D02*
X71143809Y45887620D01*
X71048571Y45744762D01*
X70953333Y45649524D01*
X70858095Y45601905D01*
X71762857Y45887620D02*
X72381904Y45887620D01*
X72048571Y45506667D01*
X72191428Y45506667D01*
X72286666Y45459048D01*
X72334285Y45411429D01*
X72381904Y45316191D01*
X72381904Y45078096D01*
X72334285Y44982858D01*
X72286666Y44935239D01*
X72191428Y44887620D01*
X71905714Y44887620D01*
X71810476Y44935239D01*
X71762857Y44982858D01*
%TO.C,R1*%
X26503333Y58347620D02*
X26170000Y58823810D01*
X25931904Y58347620D02*
X25931904Y59347620D01*
X26312857Y59347620D01*
X26408095Y59300000D01*
X26455714Y59252381D01*
X26503333Y59157143D01*
X26503333Y59014286D01*
X26455714Y58919048D01*
X26408095Y58871429D01*
X26312857Y58823810D01*
X25931904Y58823810D01*
X27455714Y58347620D02*
X26884285Y58347620D01*
X27170000Y58347620D02*
X27170000Y59347620D01*
X27074761Y59204762D01*
X26979523Y59109524D01*
X26884285Y59061905D01*
%TO.C,C2*%
X11263333Y69112858D02*
X11215714Y69065239D01*
X11072857Y69017620D01*
X10977619Y69017620D01*
X10834761Y69065239D01*
X10739523Y69160477D01*
X10691904Y69255715D01*
X10644285Y69446191D01*
X10644285Y69589048D01*
X10691904Y69779524D01*
X10739523Y69874762D01*
X10834761Y69970000D01*
X10977619Y70017620D01*
X11072857Y70017620D01*
X11215714Y69970000D01*
X11263333Y69922381D01*
X11644285Y69922381D02*
X11691904Y69970000D01*
X11787142Y70017620D01*
X12025238Y70017620D01*
X12120476Y69970000D01*
X12168095Y69922381D01*
X12215714Y69827143D01*
X12215714Y69731905D01*
X12168095Y69589048D01*
X11596666Y69017620D01*
X12215714Y69017620D01*
%TO.C,C4*%
X5057142Y67143334D02*
X5104761Y67095715D01*
X5152380Y66952858D01*
X5152380Y66857620D01*
X5104761Y66714762D01*
X5009523Y66619524D01*
X4914285Y66571905D01*
X4723809Y66524286D01*
X4580952Y66524286D01*
X4390476Y66571905D01*
X4295238Y66619524D01*
X4200000Y66714762D01*
X4152380Y66857620D01*
X4152380Y66952858D01*
X4200000Y67095715D01*
X4247619Y67143334D01*
X4485714Y68000477D02*
X5152380Y68000477D01*
X4104761Y67762381D02*
X4819047Y67524286D01*
X4819047Y68143334D01*
%TO.C,C7*%
X114133333Y76732858D02*
X114085714Y76685239D01*
X113942857Y76637620D01*
X113847619Y76637620D01*
X113704761Y76685239D01*
X113609523Y76780477D01*
X113561904Y76875715D01*
X113514285Y77066191D01*
X113514285Y77209048D01*
X113561904Y77399524D01*
X113609523Y77494762D01*
X113704761Y77590000D01*
X113847619Y77637620D01*
X113942857Y77637620D01*
X114085714Y77590000D01*
X114133333Y77542381D01*
X114466666Y77637620D02*
X115133333Y77637620D01*
X114704761Y76637620D01*
%TO.C,D1*%
X29741904Y55047620D02*
X29741904Y56047620D01*
X29980000Y56047620D01*
X30122857Y56000000D01*
X30218095Y55904762D01*
X30265714Y55809524D01*
X30313333Y55619048D01*
X30313333Y55476191D01*
X30265714Y55285715D01*
X30218095Y55190477D01*
X30122857Y55095239D01*
X29980000Y55047620D01*
X29741904Y55047620D01*
X31265714Y55047620D02*
X30694285Y55047620D01*
X30980000Y55047620D02*
X30980000Y56047620D01*
X30884761Y55904762D01*
X30789523Y55809524D01*
X30694285Y55761905D01*
%TO.C,BZ1*%
X113289832Y48781429D02*
X113432689Y48733810D01*
X113480308Y48686191D01*
X113527927Y48590953D01*
X113527927Y48448096D01*
X113480308Y48352858D01*
X113432689Y48305239D01*
X113337451Y48257620D01*
X112956499Y48257620D01*
X112956499Y49257620D01*
X113289832Y49257620D01*
X113385070Y49210000D01*
X113432689Y49162381D01*
X113480308Y49067143D01*
X113480308Y48971905D01*
X113432689Y48876667D01*
X113385070Y48829048D01*
X113289832Y48781429D01*
X112956499Y48781429D01*
X113861261Y49257620D02*
X114527927Y49257620D01*
X113861261Y48257620D01*
X114527927Y48257620D01*
X115432689Y48257620D02*
X114861261Y48257620D01*
X115146975Y48257620D02*
X115146975Y49257620D01*
X115051737Y49114762D01*
X114956499Y49019524D01*
X114861261Y48971905D01*
D11*
%TO.C,Q1*%
X103630000Y58110000D02*
X102170000Y58110000D01*
X103630000Y61270000D02*
X101470000Y61270000D01*
X103630000Y61270000D02*
X103630000Y60340000D01*
X103630000Y58110000D02*
X103630000Y59040000D01*
%TO.C,U1*%
X21700000Y81330000D02*
X20050000Y81330000D01*
X21700000Y45650000D02*
X21700000Y81330000D01*
X16400000Y45650000D02*
X21700000Y45650000D01*
X16400000Y81330000D02*
X16400000Y45650000D01*
X18050000Y81330000D02*
X16400000Y81330000D01*
X18050000Y81330000D02*
G75*
G03*
X20050000Y81330000I1000000J0D01*
G01*
%TO.C,U3*%
X53275000Y52350000D02*
X53275000Y50700000D01*
X83875000Y50700000D02*
X83875000Y56000000D01*
X53275000Y56000000D02*
X53275000Y54350000D01*
X53275000Y50700000D02*
X83875000Y50700000D01*
X83875000Y56000000D02*
X53275000Y56000000D01*
X53275000Y52350000D02*
G75*
G03*
X53275000Y54350000I0J1000000D01*
G01*
%TO.C,U2*%
X113155000Y69195000D02*
X114655000Y69195000D01*
X114655000Y69465000D02*
X117485000Y69465000D01*
X114655000Y75825000D02*
X115755000Y75825000D01*
X113155000Y76095000D02*
X114655000Y76095000D01*
X114655000Y69195000D02*
X114655000Y69465000D01*
X114655000Y76095000D02*
X114655000Y75825000D01*
%TO.C,U4*%
X34190000Y77400000D02*
X39490000Y77400000D01*
X34190000Y87680000D02*
X34190000Y77400000D01*
X35840000Y87680000D02*
X34190000Y87680000D01*
X39490000Y87680000D02*
X37840000Y87680000D01*
X39490000Y77400000D02*
X39490000Y87680000D01*
X35840000Y87680000D02*
G75*
G03*
X37840000Y87680000I1000000J0D01*
G01*
%TO.C,DS2*%
X28440000Y7117500D02*
X108720000Y7117500D01*
X108720000Y7117500D02*
X108720000Y43397500D01*
X108720000Y43397500D02*
X29240000Y43397500D01*
X28440000Y43397500D02*
X28440000Y7117500D01*
X28450000Y43397500D02*
X29240000Y43397500D01*
X35080000Y43757500D02*
X38080000Y43757500D01*
X36780000Y32757500D02*
X100280000Y32757500D01*
X36280280Y18258180D02*
X36280280Y32257500D01*
X100280660Y17757500D02*
X36780000Y17757500D01*
X100780000Y32257500D02*
X100780000Y18257500D01*
X31580000Y37757500D02*
X104580000Y37757500D01*
X104580000Y37757500D02*
X104580000Y12757500D01*
X104580000Y12757500D02*
X31580000Y12757500D01*
X31580000Y12757500D02*
X31580000Y37757500D01*
X36780660Y32759040D02*
G75*
G03*
X36280280Y32258660I0J-500380D01*
G01*
X36280280Y18258180D02*
G75*
G03*
X36780660Y17757800I500380J0D01*
G01*
X100280660Y17757800D02*
G75*
G03*
X100781040Y18258180I0J500380D01*
G01*
X100780000Y32257500D02*
G75*
G03*
X100280000Y32757500I-500000J0D01*
G01*
%TO.C,Y1*%
X7610000Y65590000D02*
X7610000Y52990000D01*
X7610000Y52990000D02*
X12710000Y52990000D01*
X12710000Y52990000D02*
X12710000Y65590000D01*
%TO.C,J3*%
X20380000Y16570000D02*
X20380000Y15240000D01*
X19050000Y16570000D02*
X20380000Y16570000D01*
X20380000Y13970000D02*
X20380000Y11370000D01*
X17780000Y13970000D02*
X20380000Y13970000D01*
X17780000Y16570000D02*
X17780000Y13970000D01*
X20380000Y11370000D02*
X12640000Y11370000D01*
X17780000Y16570000D02*
X12640000Y16570000D01*
X12640000Y16570000D02*
X12640000Y11370000D01*
%TO.C,TP4*%
X87560000Y55880000D02*
G75*
G03*
X87560000Y55880000I-1200000J0D01*
G01*
%TO.C,RV2*%
X35755000Y58225000D02*
X35755000Y48455000D01*
X45525000Y58225000D02*
X45525000Y48455000D01*
X35755000Y48455000D02*
X45525000Y48455000D01*
X35755000Y58225000D02*
X45525000Y58225000D01*
%TO.C,SW5*%
X10660000Y35110000D02*
X10660000Y23310000D01*
X22860000Y35110000D02*
X22860000Y32710000D01*
X18760000Y35110000D02*
X22860000Y35110000D01*
X14760000Y23310000D02*
X10660000Y23310000D01*
X14760000Y35110000D02*
X10660000Y35110000D01*
X22860000Y30510000D02*
X22860000Y27910000D01*
X16760000Y29710000D02*
X16760000Y28710000D01*
X9260000Y33010000D02*
X8960000Y33310000D01*
X8960000Y33310000D02*
X9560000Y33310000D01*
X16260000Y29210000D02*
X17260000Y29210000D01*
X22860000Y25710000D02*
X22860000Y23310000D01*
X22860000Y23310000D02*
X18760000Y23310000D01*
X9560000Y33310000D02*
X9260000Y33010000D01*
X19760000Y29210000D02*
G75*
G03*
X19760000Y29210000I-3000000J0D01*
G01*
%TO.C,SW1*%
X96500000Y85850000D02*
X97500000Y85850000D01*
X96500000Y84850000D02*
X96500000Y85850000D01*
X98500000Y83850000D02*
X98500000Y81250000D01*
X104700000Y83850000D02*
X104700000Y81250000D01*
X104600000Y79300000D02*
X98600000Y79300000D01*
X104500000Y85800000D02*
X98700000Y85800000D01*
%TO.C,TP2*%
X55805000Y60960000D02*
G75*
G03*
X55805000Y60960000I-1200000J0D01*
G01*
%TO.C,TP1*%
X104070000Y46990000D02*
G75*
G03*
X104070000Y46990000I-1200000J0D01*
G01*
%TO.C,TP5*%
X119310000Y78740000D02*
G75*
G03*
X119310000Y78740000I-1200000J0D01*
G01*
%TO.C,Y2*%
X30110000Y87040000D02*
X28310000Y87040000D01*
X28260000Y85640000D02*
X28260000Y84540000D01*
X30160000Y85640000D02*
X30160000Y84540000D01*
%TO.C,TP3*%
X124390000Y19050000D02*
G75*
G03*
X124390000Y19050000I-1200000J0D01*
G01*
D12*
%TO.C,DS1*%
X61085000Y62165000D02*
G75*
G03*
X61085000Y62165000I-125000J0D01*
G01*
D10*
X93805000Y62765000D02*
X43355000Y62765000D01*
X93805000Y62765000D02*
X93805000Y82015000D01*
X93805000Y82015000D02*
X43355000Y82015000D01*
X43355000Y62765000D02*
X43355000Y82015000D01*
D11*
%TO.C,D1*%
X29480000Y56190000D02*
X32165000Y56190000D01*
X32165000Y56190000D02*
X32165000Y58110000D01*
X32165000Y58110000D02*
X29480000Y58110000D01*
%TO.C,BZ1*%
X120400785Y55880000D02*
G75*
G03*
X120400785Y55880000I-6230000J0D01*
G01*
X120570785Y54380000D02*
G75*
G03*
X120570785Y57379999I-6400000J1500000D01*
G01*
%TD*%
%LPC*%
D13*
%TO.C,R12*%
X97370000Y55880000D03*
X95670000Y55880000D03*
%TD*%
D14*
%TO.C,R11*%
X12700000Y41490000D03*
X12700000Y39790000D03*
%TD*%
%TO.C,R5*%
X123190000Y55030000D03*
X123190000Y56730000D03*
%TD*%
D15*
%TO.C,Q1*%
X101870000Y60640000D03*
X101870000Y58740000D03*
X103870000Y59690000D03*
%TD*%
D13*
%TO.C,C9*%
X67730000Y59690000D03*
X69430000Y59690000D03*
%TD*%
D16*
%TO.C,U1*%
X15240000Y80000000D03*
D17*
X15240000Y77460000D03*
X15240000Y74920000D03*
X15240000Y72380000D03*
X15240000Y69840000D03*
X15240000Y67300000D03*
X15240000Y64760000D03*
X15240000Y62220000D03*
X15240000Y59680000D03*
X15240000Y57140000D03*
X15240000Y54600000D03*
X15240000Y52060000D03*
X15240000Y49520000D03*
X15240000Y46980000D03*
X22860000Y46980000D03*
X22860000Y49520000D03*
X22860000Y52060000D03*
X22860000Y54600000D03*
X22860000Y57140000D03*
X22860000Y59680000D03*
X22860000Y62220000D03*
X22860000Y64760000D03*
X22860000Y67300000D03*
X22860000Y69840000D03*
X22860000Y72380000D03*
X22860000Y74920000D03*
X22860000Y77460000D03*
X22860000Y80000000D03*
%TD*%
D16*
%TO.C,U3*%
X54605000Y49540000D03*
D17*
X57145000Y49540000D03*
X59685000Y49540000D03*
X62225000Y49540000D03*
X64765000Y49540000D03*
X67305000Y49540000D03*
X69845000Y49540000D03*
X72385000Y49540000D03*
X74925000Y49540000D03*
X77465000Y49540000D03*
X80005000Y49540000D03*
X82545000Y49540000D03*
X82545000Y57160000D03*
X80005000Y57160000D03*
X77465000Y57160000D03*
X74925000Y57160000D03*
X72385000Y57160000D03*
X69845000Y57160000D03*
X67305000Y57160000D03*
X64765000Y57160000D03*
X62225000Y57160000D03*
X59685000Y57160000D03*
X57145000Y57160000D03*
X54605000Y57160000D03*
%TD*%
D18*
%TO.C,H4*%
X134990000Y6050000D03*
%TD*%
D19*
%TO.C,U2*%
X116385000Y70365000D03*
D20*
X110085000Y72645000D03*
D19*
X116385000Y74925000D03*
%TD*%
D16*
%TO.C,U4*%
X33030000Y86350000D03*
D17*
X33030000Y83810000D03*
X33030000Y81270000D03*
X33030000Y78730000D03*
X40650000Y78730000D03*
X40650000Y81270000D03*
X40650000Y83810000D03*
X40650000Y86350000D03*
%TD*%
D21*
%TO.C,DS2*%
X106080000Y40757500D03*
X106079480Y9756800D03*
X31080900Y9756800D03*
X31080900Y40757500D03*
D22*
X74680000Y40757500D03*
X72140000Y40757500D03*
X69600000Y40757500D03*
X67060000Y40757500D03*
X64520000Y40757500D03*
X61980000Y40757500D03*
X59440000Y40757500D03*
X56900000Y40757500D03*
X54360000Y40757500D03*
X51820000Y40757500D03*
X49280000Y40757500D03*
X46740000Y40757500D03*
X44200000Y40757500D03*
X41660000Y40757500D03*
X39120000Y40757500D03*
D23*
X36580000Y40757500D03*
%TD*%
D13*
%TO.C,R2*%
X4230000Y78740000D03*
X5930000Y78740000D03*
%TD*%
D14*
%TO.C,R9*%
X26670000Y82130000D03*
X26670000Y80430000D03*
%TD*%
D13*
%TO.C,C8*%
X65620000Y59690000D03*
X63920000Y59690000D03*
%TD*%
D14*
%TO.C,R6*%
X6350000Y27090000D03*
X6350000Y28790000D03*
%TD*%
D24*
%TO.C,Y1*%
X10160000Y55440000D03*
X10160000Y63940000D03*
%TD*%
D14*
%TO.C,C5*%
X10160000Y49110000D03*
X10160000Y47410000D03*
%TD*%
D13*
%TO.C,C6*%
X113880000Y66040000D03*
X112180000Y66040000D03*
%TD*%
D25*
%TO.C,J3*%
X19050000Y15240000D03*
D26*
X19050000Y12700000D03*
X16510000Y15240000D03*
X16510000Y12700000D03*
X13970000Y15240000D03*
X13970000Y12700000D03*
%TD*%
D27*
%TO.C,TP4*%
X86360000Y55880000D03*
%TD*%
D13*
%TO.C,R4*%
X10580000Y81280000D03*
X12280000Y81280000D03*
%TD*%
D18*
%TO.C,H2*%
X134990000Y86050000D03*
%TD*%
D28*
%TO.C,RV2*%
X40655000Y50800000D03*
X43195000Y53340000D03*
X40655000Y55880000D03*
%TD*%
D18*
%TO.C,SW5*%
X16760000Y34810000D03*
X16760000Y23610000D03*
D29*
X9260000Y31710000D03*
D27*
X9260000Y26710000D03*
X9260000Y29210000D03*
X23760000Y26710000D03*
X23760000Y31710000D03*
%TD*%
D14*
%TO.C,R7*%
X6350000Y32600000D03*
X6350000Y30900000D03*
%TD*%
D18*
%TO.C,H3*%
X4990000Y6050000D03*
%TD*%
D30*
%TO.C,SW1*%
X105600000Y84800000D03*
X97600000Y84800000D03*
X105600000Y80300000D03*
X97600000Y80300000D03*
%TD*%
D13*
%TO.C,R3*%
X18200000Y82550000D03*
X19900000Y82550000D03*
%TD*%
D18*
%TO.C,H1*%
X4990000Y86050000D03*
%TD*%
D27*
%TO.C,TP2*%
X54605000Y60960000D03*
%TD*%
%TO.C,TP1*%
X102870000Y46990000D03*
%TD*%
D14*
%TO.C,R10*%
X26670000Y37250000D03*
X26670000Y38950000D03*
%TD*%
D13*
%TO.C,C3*%
X5930000Y76200000D03*
X4230000Y76200000D03*
%TD*%
D27*
%TO.C,TP5*%
X118110000Y78740000D03*
%TD*%
D31*
%TO.C,Y2*%
X29210000Y86340000D03*
X29210000Y83840000D03*
%TD*%
D13*
%TO.C,C1*%
X27090000Y62230000D03*
X28790000Y62230000D03*
%TD*%
D27*
%TO.C,TP3*%
X123190000Y19050000D03*
%TD*%
D32*
%TO.C,DS1*%
X60960000Y64770000D03*
D33*
X63500000Y64770000D03*
X66040000Y64770000D03*
X68580000Y64770000D03*
X71120000Y64770000D03*
X73660000Y64770000D03*
X76200000Y64770000D03*
X76200000Y80010000D03*
X73660000Y80010000D03*
X71120000Y80010000D03*
X68580000Y80010000D03*
X66040000Y80010000D03*
X63500000Y80010000D03*
X60960000Y80010000D03*
%TD*%
D14*
%TO.C,R8*%
X26670000Y75350000D03*
X26670000Y77050000D03*
%TD*%
D13*
%TO.C,R13*%
X71970000Y46990000D03*
X70270000Y46990000D03*
%TD*%
%TO.C,R1*%
X25820000Y57150000D03*
X27520000Y57150000D03*
%TD*%
%TO.C,C2*%
X12280000Y71120000D03*
X10580000Y71120000D03*
%TD*%
D14*
%TO.C,C4*%
X6350000Y66460000D03*
X6350000Y68160000D03*
%TD*%
D13*
%TO.C,C7*%
X115150000Y78740000D03*
X113450000Y78740000D03*
%TD*%
D34*
%TO.C,D1*%
X31417500Y57150000D03*
X29542500Y57150000D03*
%TD*%
D27*
%TO.C,BZ1*%
X111670785Y55880000D03*
D29*
X116670785Y55880000D03*
%TD*%
D26*
%TO.C,J2*%
X25400000Y86360000D03*
X22860000Y86360000D03*
X20320000Y86360000D03*
X17780000Y86360000D03*
X15240000Y86360000D03*
D25*
X12700000Y86360000D03*
%TD*%
D35*
%TO.C,J1*%
X123640000Y74470006D03*
X129640000Y74470006D03*
D36*
X126640000Y69770006D03*
%TD*%
D37*
%TO.C,BT1*%
X123190000Y48260000D03*
D21*
X123190000Y27770000D03*
%TD*%
M02*
