%TF.GenerationSoftware,KiCad,Pcbnew,(6.0.5-0)*%
%TF.CreationDate,2022-07-21T21:16:06-07:00*%
%TF.ProjectId,Gitclock,47697463-6c6f-4636-9b2e-6b696361645f,rev?*%
%TF.SameCoordinates,PX4c4db10PY8b48bd0*%
%TF.FileFunction,Paste,Top*%
%TF.FilePolarity,Positive*%
%FSLAX46Y46*%
G04 Gerber Fmt 4.6, Leading zero omitted, Abs format (unit mm)*
G04 Created by KiCad (PCBNEW (6.0.5-0)) date 2022-07-21 21:16:06*
%MOMM*%
%LPD*%
G01*
G04 APERTURE LIST*
G04 Aperture macros list*
%AMRoundRect*
0 Rectangle with rounded corners*
0 $1 Rounding radius*
0 $2 $3 $4 $5 $6 $7 $8 $9 X,Y pos of 4 corners*
0 Add a 4 corners polygon primitive as box body*
4,1,4,$2,$3,$4,$5,$6,$7,$8,$9,$2,$3,0*
0 Add four circle primitives for the rounded corners*
1,1,$1+$1,$2,$3*
1,1,$1+$1,$4,$5*
1,1,$1+$1,$6,$7*
1,1,$1+$1,$8,$9*
0 Add four rect primitives between the rounded corners*
20,1,$1+$1,$2,$3,$4,$5,0*
20,1,$1+$1,$4,$5,$6,$7,0*
20,1,$1+$1,$6,$7,$8,$9,0*
20,1,$1+$1,$8,$9,$2,$3,0*%
G04 Aperture macros list end*
%ADD10R,1.150000X1.400000*%
%ADD11R,1.400000X1.150000*%
%ADD12R,0.900000X0.800000*%
%ADD13R,3.050000X2.750000*%
%ADD14R,2.200000X1.200000*%
%ADD15R,2.000000X4.500000*%
%ADD16R,1.600000X1.400000*%
%ADD17R,1.800000X1.000000*%
%ADD18RoundRect,0.243750X0.243750X0.456250X-0.243750X0.456250X-0.243750X-0.456250X0.243750X-0.456250X0*%
G04 APERTURE END LIST*
D10*
%TO.C,R12*%
X97370000Y55880000D03*
X95670000Y55880000D03*
%TD*%
D11*
%TO.C,R11*%
X12700000Y41490000D03*
X12700000Y39790000D03*
%TD*%
%TO.C,R5*%
X123190000Y55030000D03*
X123190000Y56730000D03*
%TD*%
D12*
%TO.C,Q1*%
X101870000Y60640000D03*
X101870000Y58740000D03*
X103870000Y59690000D03*
%TD*%
D10*
%TO.C,C9*%
X67730000Y59690000D03*
X69430000Y59690000D03*
%TD*%
D13*
%TO.C,U2*%
X111760000Y71120000D03*
X111760000Y74170000D03*
X108410000Y71120000D03*
X108410000Y74170000D03*
D14*
X116385000Y70365000D03*
X116385000Y74925000D03*
%TD*%
D10*
%TO.C,R2*%
X4230000Y78740000D03*
X5930000Y78740000D03*
%TD*%
D11*
%TO.C,R9*%
X26670000Y82130000D03*
X26670000Y80430000D03*
%TD*%
D10*
%TO.C,C8*%
X65620000Y59690000D03*
X63920000Y59690000D03*
%TD*%
D11*
%TO.C,R6*%
X6350000Y27090000D03*
X6350000Y28790000D03*
%TD*%
D15*
%TO.C,Y1*%
X10160000Y55440000D03*
X10160000Y63940000D03*
%TD*%
D11*
%TO.C,C5*%
X10160000Y49110000D03*
X10160000Y47410000D03*
%TD*%
D10*
%TO.C,C6*%
X113880000Y66040000D03*
X112180000Y66040000D03*
%TD*%
%TO.C,R4*%
X10580000Y81280000D03*
X12280000Y81280000D03*
%TD*%
D11*
%TO.C,R7*%
X6350000Y32600000D03*
X6350000Y30900000D03*
%TD*%
D16*
%TO.C,SW1*%
X105600000Y84800000D03*
X97600000Y84800000D03*
X105600000Y80300000D03*
X97600000Y80300000D03*
%TD*%
D10*
%TO.C,R3*%
X18200000Y82550000D03*
X19900000Y82550000D03*
%TD*%
D11*
%TO.C,R10*%
X26670000Y37250000D03*
X26670000Y38950000D03*
%TD*%
D10*
%TO.C,C3*%
X5930000Y76200000D03*
X4230000Y76200000D03*
%TD*%
D17*
%TO.C,Y2*%
X29210000Y86340000D03*
X29210000Y83840000D03*
%TD*%
D10*
%TO.C,C1*%
X27090000Y62230000D03*
X28790000Y62230000D03*
%TD*%
D11*
%TO.C,R8*%
X26670000Y75350000D03*
X26670000Y77050000D03*
%TD*%
D10*
%TO.C,R13*%
X71970000Y46990000D03*
X70270000Y46990000D03*
%TD*%
%TO.C,R1*%
X25820000Y57150000D03*
X27520000Y57150000D03*
%TD*%
%TO.C,C2*%
X12280000Y71120000D03*
X10580000Y71120000D03*
%TD*%
D11*
%TO.C,C4*%
X6350000Y66460000D03*
X6350000Y68160000D03*
%TD*%
D10*
%TO.C,C7*%
X115150000Y78740000D03*
X113450000Y78740000D03*
%TD*%
D18*
%TO.C,D1*%
X31417500Y57150000D03*
X29542500Y57150000D03*
%TD*%
M02*
