M48
; DRILL file {KiCad (6.0.5-0)} date Thursday, July 21, 2022 at 09:17:00 PM
; FORMAT={-:-/ absolute / inch / decimal}
; #@! TF.CreationDate,2022-07-21T21:17:00-07:00
; #@! TF.GenerationSoftware,Kicad,Pcbnew,(6.0.5-0)
; #@! TF.FileFunction,MixedPlating,1,2
FMAT,2
INCH
; #@! TA.AperFunction,Plated,PTH,ViaDrill
T1C0.0160
; #@! TA.AperFunction,Plated,PTH,ComponentDrill
T2C0.0315
; #@! TA.AperFunction,Plated,PTH,ComponentDrill
T3C0.0354
; #@! TA.AperFunction,Plated,PTH,ComponentDrill
T4C0.0394
; #@! TA.AperFunction,Plated,PTH,ComponentDrill
T5C0.0433
; #@! TA.AperFunction,Plated,PTH,ComponentDrill
T6C0.0472
; #@! TA.AperFunction,Plated,PTH,ComponentDrill
T7C0.0591
; #@! TA.AperFunction,Plated,PTH,ComponentDrill
T8C0.0984
; #@! TA.AperFunction,Plated,PTH,ComponentDrill
T9C0.1024
; #@! TA.AperFunction,NonPlated,NPTH,ComponentDrill
T10C0.1260
%
G90
G05
T1
X0.15Y2.9
X0.15Y1.2
X0.25Y2.75
X0.35Y3.2
X0.35Y2.8
X0.4Y1.75
X0.6Y1.6
X0.7Y1.5
X0.95Y1.5
X1.05Y1.6
X1.2Y2.45
X1.3Y2.25
X1.3Y2.1
X1.3Y1.3
X1.3496Y2.1496
X1.35Y1.5
X1.6Y1.85
X1.8Y2.7
X1.8Y1.4
X1.9Y2.8
X1.95Y2.05
X1.95Y1.45
X2.0Y2.9
X2.0Y1.5
X2.25Y2.65
X2.35Y2.4
X2.45Y2.35
X2.5Y2.8
X2.55Y2.45
X2.6Y2.7
X2.65Y3.2
X2.7Y2.9
X2.8Y2.35
X3.0Y2.05
X3.1Y2.6998
X3.15Y2.8
X3.2Y2.9
X3.25Y1.7
X3.35Y1.7
X3.4Y1.7825
X3.9Y2.3
X4.0Y2.25
X4.15Y3.4
X4.15Y2.85
T2
X0.6Y3.1496
X0.6Y3.0496
X0.6Y2.9496
X0.6Y2.8496
X0.6Y2.7496
X0.6Y2.6496
X0.6Y2.5496
X0.6Y2.4496
X0.6Y2.3496
X0.6Y2.2496
X0.6Y2.1496
X0.6Y2.0496
X0.6Y1.9496
X0.6Y1.8496
X0.9Y3.1496
X0.9Y3.0496
X0.9Y2.9496
X0.9Y2.8496
X0.9Y2.7496
X0.9Y2.6496
X0.9Y2.5496
X0.9Y2.4496
X0.9Y2.3496
X0.9Y2.2496
X0.9Y2.1496
X0.9Y2.0496
X0.9Y1.9496
X0.9Y1.8496
X1.3004Y3.3996
X1.3004Y3.2996
X1.3004Y3.1996
X1.3004Y3.0996
X1.6004Y3.3996
X1.6004Y3.2996
X1.6004Y3.1996
X1.6004Y3.0996
X1.6006Y2.2
X1.6006Y2.0
X1.7006Y2.1
X2.1498Y2.2504
X2.1498Y1.9504
X2.2498Y2.2504
X2.2498Y1.9504
X2.3498Y2.2504
X2.3498Y1.9504
X2.4498Y2.2504
X2.4498Y1.9504
X2.5498Y2.2504
X2.5498Y1.9504
X2.6498Y2.2504
X2.6498Y1.9504
X2.7498Y2.2504
X2.7498Y1.9504
X2.8498Y2.2504
X2.8498Y1.9504
X2.9498Y2.2504
X2.9498Y1.9504
X3.0498Y2.2504
X3.0498Y1.9504
X3.1498Y2.2504
X3.1498Y1.9504
X3.2498Y2.2504
X3.2498Y1.9504
T3
X2.4Y3.15
X2.4Y2.55
X2.5Y3.15
X2.5Y2.55
X2.6Y3.15
X2.6Y2.55
X2.7Y3.15
X2.7Y2.55
X2.8Y3.15
X2.8Y2.55
X2.9Y3.15
X2.9Y2.55
X3.0Y3.15
X3.0Y2.55
T4
X0.3646Y1.2484
X0.3646Y1.15
X0.3646Y1.0516
X0.5Y3.4
X0.55Y0.6
X0.55Y0.5
X0.6Y3.4
X0.65Y0.6
X0.65Y0.5
X0.7Y3.4
X0.75Y0.6
X0.75Y0.5
X0.8Y3.4
X0.9Y3.4
X0.9354Y1.2484
X0.9354Y1.0516
X1.0Y3.4
X2.1498Y2.4
X3.4Y2.2
X4.05Y1.85
X4.3965Y2.2
X4.5933Y2.2
X4.65Y3.1
X4.85Y0.75
T6
X1.4402Y1.6046
X1.5402Y1.6046
X1.6402Y1.6046
X1.7402Y1.6046
X1.8402Y1.6046
X1.9402Y1.6046
X2.0402Y1.6046
X2.1402Y1.6046
X2.2402Y1.6046
X2.3402Y1.6046
X2.4402Y1.6046
X2.5402Y1.6046
X2.6402Y1.6046
X2.7402Y1.6046
X2.8402Y1.6046
X2.9402Y1.6046
T7
X4.85Y1.9
X4.85Y1.0933
T8
X1.2237Y1.6046
X1.2237Y0.3841
X4.1764Y0.3841
X4.1764Y1.6046
T9
X0.6598Y1.3705
X0.6598Y0.9295
T10
X0.1965Y3.3878
X0.1965Y0.2382
X5.3146Y3.3878
X5.3146Y0.2382
T5
G00X4.8677Y2.9181
M15
G01X4.8677Y2.9457
M16
G05
G00X4.972Y2.7469
M15
G01X4.9996Y2.7469
M16
G05
G00X5.1039Y2.9181
M15
G01X5.1039Y2.9457
M16
G05
T0
M30
