%TF.GenerationSoftware,KiCad,Pcbnew,(6.0.5-0)*%
%TF.CreationDate,2022-07-22T21:53:24-07:00*%
%TF.ProjectId,Gitclock,47697463-6c6f-4636-9b2e-6b696361645f,rev?*%
%TF.SameCoordinates,PX4c4db10PY8b48bd0*%
%TF.FileFunction,Soldermask,Top*%
%TF.FilePolarity,Negative*%
%FSLAX46Y46*%
G04 Gerber Fmt 4.6, Leading zero omitted, Abs format (unit mm)*
G04 Created by KiCad (PCBNEW (6.0.5-0)) date 2022-07-22 21:53:24*
%MOMM*%
%LPD*%
G01*
G04 APERTURE LIST*
G04 Aperture macros list*
%AMRoundRect*
0 Rectangle with rounded corners*
0 $1 Rounding radius*
0 $2 $3 $4 $5 $6 $7 $8 $9 X,Y pos of 4 corners*
0 Add a 4 corners polygon primitive as box body*
4,1,4,$2,$3,$4,$5,$6,$7,$8,$9,$2,$3,0*
0 Add four circle primitives for the rounded corners*
1,1,$1+$1,$2,$3*
1,1,$1+$1,$4,$5*
1,1,$1+$1,$6,$7*
1,1,$1+$1,$8,$9*
0 Add four rect primitives between the rounded corners*
20,1,$1+$1,$2,$3,$4,$5,0*
20,1,$1+$1,$4,$5,$6,$7,0*
20,1,$1+$1,$6,$7,$8,$9,0*
20,1,$1+$1,$8,$9,$2,$3,0*%
G04 Aperture macros list end*
%ADD10C,3.200000*%
%ADD11R,2.200000X1.200000*%
%ADD12R,6.400000X5.800000*%
%ADD13R,1.600000X1.600000*%
%ADD14O,1.600000X1.600000*%
%ADD15C,3.000000*%
%ADD16R,1.800000X2.600000*%
%ADD17O,1.800000X2.600000*%
%ADD18R,1.150000X1.400000*%
%ADD19R,1.400000X1.150000*%
%ADD20R,2.000000X4.500000*%
%ADD21R,1.700000X1.700000*%
%ADD22O,1.700000X1.700000*%
%ADD23C,2.000000*%
%ADD24C,1.440000*%
%ADD25R,2.000000X2.000000*%
%ADD26R,1.600000X1.400000*%
%ADD27R,0.900000X0.800000*%
%ADD28R,1.800000X1.000000*%
%ADD29R,1.400000X1.400000*%
%ADD30C,1.400000*%
%ADD31RoundRect,0.243750X0.243750X0.456250X-0.243750X0.456250X-0.243750X-0.456250X0.243750X-0.456250X0*%
%ADD32RoundRect,0.400000X-0.400000X0.900000X-0.400000X-0.900000X0.400000X-0.900000X0.400000X0.900000X0*%
%ADD33RoundRect,0.400000X-0.900000X0.400000X-0.900000X-0.400000X0.900000X-0.400000X0.900000X0.400000X0*%
%ADD34R,3.000000X3.000000*%
G04 APERTURE END LIST*
D10*
%TO.C,H4*%
X134990000Y6050000D03*
%TD*%
D11*
%TO.C,U2*%
X116385000Y70365000D03*
D12*
X110085000Y72645000D03*
D11*
X116385000Y74925000D03*
%TD*%
D13*
%TO.C,U4*%
X33030000Y86350000D03*
D14*
X33030000Y83810000D03*
X33030000Y81270000D03*
X33030000Y78730000D03*
X40650000Y78730000D03*
X40650000Y81270000D03*
X40650000Y83810000D03*
X40650000Y86350000D03*
%TD*%
D15*
%TO.C,DS2*%
X106080000Y40757500D03*
X31080900Y40757500D03*
X31080900Y9756800D03*
X106079480Y9756800D03*
D16*
X36580000Y40757500D03*
D17*
X39120000Y40757500D03*
X41660000Y40757500D03*
X44200000Y40757500D03*
X46740000Y40757500D03*
X49280000Y40757500D03*
X51820000Y40757500D03*
X54360000Y40757500D03*
X56900000Y40757500D03*
X59440000Y40757500D03*
X61980000Y40757500D03*
X64520000Y40757500D03*
X67060000Y40757500D03*
X69600000Y40757500D03*
X72140000Y40757500D03*
X74680000Y40757500D03*
%TD*%
D18*
%TO.C,R2*%
X4230000Y78740000D03*
X5930000Y78740000D03*
%TD*%
D13*
%TO.C,U1*%
X15240000Y80010000D03*
D14*
X15240000Y77470000D03*
X15240000Y74930000D03*
X15240000Y72390000D03*
X15240000Y69850000D03*
X15240000Y67310000D03*
X15240000Y64770000D03*
X15240000Y62230000D03*
X15240000Y59690000D03*
X15240000Y57150000D03*
X15240000Y54610000D03*
X15240000Y52070000D03*
X15240000Y49530000D03*
X15240000Y46990000D03*
X22860000Y46990000D03*
X22860000Y49530000D03*
X22860000Y52070000D03*
X22860000Y54610000D03*
X22860000Y57150000D03*
X22860000Y59690000D03*
X22860000Y62230000D03*
X22860000Y64770000D03*
X22860000Y67310000D03*
X22860000Y69850000D03*
X22860000Y72390000D03*
X22860000Y74930000D03*
X22860000Y77470000D03*
X22860000Y80010000D03*
%TD*%
D19*
%TO.C,R9*%
X26670000Y82130000D03*
X26670000Y80430000D03*
%TD*%
D18*
%TO.C,C8*%
X65620000Y59690000D03*
X63920000Y59690000D03*
%TD*%
D19*
%TO.C,R6*%
X6350000Y27090000D03*
X6350000Y28790000D03*
%TD*%
D20*
%TO.C,Y1*%
X10160000Y55440000D03*
X10160000Y63940000D03*
%TD*%
D19*
%TO.C,C5*%
X10160000Y49110000D03*
X10160000Y47410000D03*
%TD*%
D18*
%TO.C,C6*%
X113880000Y66040000D03*
X112180000Y66040000D03*
%TD*%
D13*
%TO.C,U3*%
X54605000Y49540000D03*
D14*
X57145000Y49540000D03*
X59685000Y49540000D03*
X62225000Y49540000D03*
X64765000Y49540000D03*
X67305000Y49540000D03*
X69845000Y49540000D03*
X72385000Y49540000D03*
X74925000Y49540000D03*
X77465000Y49540000D03*
X80005000Y49540000D03*
X82545000Y49540000D03*
X82545000Y57160000D03*
X80005000Y57160000D03*
X77465000Y57160000D03*
X74925000Y57160000D03*
X72385000Y57160000D03*
X69845000Y57160000D03*
X67305000Y57160000D03*
X64765000Y57160000D03*
X62225000Y57160000D03*
X59685000Y57160000D03*
X57145000Y57160000D03*
X54605000Y57160000D03*
%TD*%
D21*
%TO.C,J3*%
X19050000Y15240000D03*
D22*
X19050000Y12700000D03*
X16510000Y15240000D03*
X16510000Y12700000D03*
X13970000Y15240000D03*
X13970000Y12700000D03*
%TD*%
D23*
%TO.C,TP4*%
X86360000Y55880000D03*
%TD*%
D18*
%TO.C,R4*%
X10580000Y81280000D03*
X12280000Y81280000D03*
%TD*%
D10*
%TO.C,H2*%
X134990000Y86050000D03*
%TD*%
D24*
%TO.C,RV2*%
X40655000Y50800000D03*
X43195000Y53340000D03*
X40655000Y55880000D03*
%TD*%
D10*
%TO.C,SW5*%
X16760000Y34810000D03*
X16760000Y23610000D03*
D25*
X9260000Y31710000D03*
D23*
X9260000Y26710000D03*
X9260000Y29210000D03*
X23760000Y26710000D03*
X23760000Y31710000D03*
%TD*%
D19*
%TO.C,R7*%
X6350000Y32600000D03*
X6350000Y30900000D03*
%TD*%
D10*
%TO.C,H3*%
X4990000Y6050000D03*
%TD*%
D26*
%TO.C,SW1*%
X97600000Y84800000D03*
X105600000Y84800000D03*
X97600000Y80300000D03*
X105600000Y80300000D03*
%TD*%
D18*
%TO.C,R12*%
X97370000Y55880000D03*
X95670000Y55880000D03*
%TD*%
%TO.C,R3*%
X18620000Y82550000D03*
X20320000Y82550000D03*
%TD*%
D10*
%TO.C,H1*%
X4990000Y86050000D03*
%TD*%
D23*
%TO.C,TP2*%
X54605000Y60960000D03*
%TD*%
D19*
%TO.C,R11*%
X12700000Y41490000D03*
X12700000Y39790000D03*
%TD*%
D27*
%TO.C,Q1*%
X101870000Y60640000D03*
X101870000Y58740000D03*
X103870000Y59690000D03*
%TD*%
D23*
%TO.C,TP1*%
X102870000Y46990000D03*
%TD*%
D19*
%TO.C,R10*%
X26670000Y37250000D03*
X26670000Y38950000D03*
%TD*%
D18*
%TO.C,C3*%
X5930000Y76200000D03*
X4230000Y76200000D03*
%TD*%
D23*
%TO.C,TP5*%
X118110000Y78740000D03*
%TD*%
D28*
%TO.C,Y2*%
X29210000Y86340000D03*
X29210000Y83840000D03*
%TD*%
D18*
%TO.C,C1*%
X27090000Y62230000D03*
X28790000Y62230000D03*
%TD*%
D23*
%TO.C,TP3*%
X123190000Y19050000D03*
%TD*%
D29*
%TO.C,DS1*%
X60960000Y64770000D03*
D30*
X63500000Y64770000D03*
X66040000Y64770000D03*
X68580000Y64770000D03*
X71120000Y64770000D03*
X73660000Y64770000D03*
X76200000Y64770000D03*
X76200000Y80010000D03*
X73660000Y80010000D03*
X71120000Y80010000D03*
X68580000Y80010000D03*
X66040000Y80010000D03*
X63500000Y80010000D03*
X60960000Y80010000D03*
%TD*%
D19*
%TO.C,R8*%
X26670000Y75350000D03*
X26670000Y77050000D03*
%TD*%
D18*
%TO.C,R13*%
X71970000Y46990000D03*
X70270000Y46990000D03*
%TD*%
D19*
%TO.C,R5*%
X123190000Y55030000D03*
X123190000Y56730000D03*
%TD*%
D18*
%TO.C,R1*%
X25820000Y57150000D03*
X27520000Y57150000D03*
%TD*%
%TO.C,C2*%
X12280000Y71120000D03*
X10580000Y71120000D03*
%TD*%
D19*
%TO.C,C4*%
X6350000Y66460000D03*
X6350000Y68160000D03*
%TD*%
D18*
%TO.C,C9*%
X67730000Y59690000D03*
X69430000Y59690000D03*
%TD*%
%TO.C,C7*%
X115150000Y78740000D03*
X113450000Y78740000D03*
%TD*%
D31*
%TO.C,D1*%
X31417500Y57150000D03*
X29542500Y57150000D03*
%TD*%
D25*
%TO.C,BZ1*%
X116670785Y55880000D03*
D23*
X111670785Y55880000D03*
%TD*%
D21*
%TO.C,J2*%
X12700000Y86360000D03*
D22*
X15240000Y86360000D03*
X17780000Y86360000D03*
X20320000Y86360000D03*
X22860000Y86360000D03*
X25400000Y86360000D03*
%TD*%
D32*
%TO.C,J1*%
X135080000Y73660000D03*
X129080000Y73660000D03*
D33*
X132080000Y78360000D03*
%TD*%
D34*
%TO.C,BT1*%
X123190000Y48260000D03*
D15*
X123190000Y27770000D03*
%TD*%
M02*
